<svg width="238" height="70" viewBox="0 0 238 70" fill="none" xmlns="http://www.w3.org/2000/svg">
<path d="M47.0402 23.4593C47.624 26.7927 45.0006 29 45.0006 29C45.0006 29 41.7936 27.874 41.2098 24.5407C40.626 21.2073 43.2494 19 43.2494 19C43.2494 19 46.4564 20.126 47.0402 23.4593Z" stroke="white" stroke-width="3" stroke-linecap="round" stroke-linejoin="round"/>
<path d="M51.854 38.1774C49.1642 40.4356 45.8736 39.1784 45.8736 39.1784C45.8736 39.1784 45.273 35.6628 47.9628 33.4046C50.6524 31.1464 53.943 32.4038 53.943 32.4038C53.943 32.4038 54.5436 35.9192 51.854 38.1774Z" stroke="white" stroke-width="3" stroke-linecap="round" stroke-linejoin="round"/>
<path d="M43.467 50.6524C40.467 49.5012 40 46.2732 40 46.2732C40 46.2732 42.533 44.1964 45.533 45.3476C48.533 46.4988 49 49.7268 49 49.7268C49 49.7268 46.467 51.8036 43.467 50.6524Z" stroke="white" stroke-width="3" stroke-linecap="round" stroke-linejoin="round"/>
<path d="M40 46.2732C42.8102 43.8716 46.0012 39.1128 46.0012 34.4546C46.0012 32.5256 45.6914 30.6844 45.1288 29" stroke="white" stroke-width="3" stroke-linecap="round" stroke-linejoin="round"/>
<path d="M20.9597 23.4593C20.376 26.7927 22.9994 29 22.9994 29C22.9994 29 26.2065 27.874 26.7903 24.5407C27.374 21.2073 24.7506 19 24.7506 19C24.7506 19 21.5435 20.126 20.9597 23.4593Z" stroke="white" stroke-width="3" stroke-linecap="round" stroke-linejoin="round"/>
<path d="M16.1461 38.1774C18.8358 40.4356 22.1263 39.1784 22.1263 39.1784C22.1263 39.1784 22.727 35.6628 20.0373 33.4046C17.3475 31.1464 14.057 32.4038 14.057 32.4038C14.057 32.4038 13.4563 35.9192 16.1461 38.1774Z" stroke="white" stroke-width="3" stroke-linecap="round" stroke-linejoin="round"/>
<path d="M24.533 50.6524C27.533 49.5012 28 46.2732 28 46.2732C28 46.2732 25.467 44.1964 22.467 45.3476C19.467 46.4988 19 49.7268 19 49.7268C19 49.7268 21.533 51.8036 24.533 50.6524Z" stroke="white" stroke-width="3" stroke-linecap="round" stroke-linejoin="round"/>
<path d="M27.9999 46.2732C25.1897 43.8716 21.9988 39.1128 21.9988 34.4546C21.9988 32.5256 22.3085 30.6844 22.8711 29" stroke="white" stroke-width="3" stroke-linecap="round" stroke-linejoin="round"/>
<path d="M32 31L34 30V40M36 40H32" stroke="white" stroke-width="3" stroke-linecap="round" stroke-linejoin="round"/>
<path d="M74.6222 30H69.6779V14.7273H74.7788C76.2752 14.7273 77.5604 15.033 78.6342 15.6445C79.7081 16.2511 80.5309 17.1236 81.1026 18.2621C81.6793 19.3956 81.9677 20.7553 81.9677 22.3413C81.9677 23.9322 81.6768 25.2994 81.0952 26.4428C80.5185 27.5863 79.6832 28.4663 78.5895 29.0827C77.4957 29.6942 76.1733 30 74.6222 30ZM71.9822 27.9865H74.4954C75.6587 27.9865 76.6257 27.7678 77.3963 27.3303C78.1669 26.8878 78.7436 26.2489 79.1264 25.4137C79.5092 24.5735 79.7006 23.5494 79.7006 22.3413C79.7006 21.1431 79.5092 20.1264 79.1264 19.2912C78.7486 18.456 78.1843 17.8221 77.4336 17.3896C76.6829 16.957 75.7507 16.7408 74.6371 16.7408H71.9822V27.9865ZM84.8332 30V14.7273H94.4085V16.7109H87.1375V21.3643H93.9088V23.3406H87.1375V28.0163H94.498V30H84.8332ZM105.816 18.7393C105.737 18.0334 105.409 17.4865 104.832 17.0987C104.255 16.706 103.529 16.5096 102.654 16.5096C102.028 16.5096 101.486 16.609 101.029 16.8079C100.571 17.0018 100.216 17.2702 99.9624 17.6133C99.7138 17.9513 99.5895 18.3366 99.5895 18.7692C99.5895 19.1321 99.674 19.4453 99.843 19.7088C100.017 19.9723 100.243 20.1935 100.522 20.3725C100.805 20.5465 101.108 20.6932 101.431 20.8125C101.755 20.9268 102.065 21.0213 102.364 21.0959L103.855 21.4837C104.342 21.603 104.842 21.7646 105.354 21.9684C105.866 22.1722 106.341 22.4407 106.778 22.7738C107.216 23.1069 107.569 23.5195 107.837 24.0117C108.111 24.5039 108.248 25.093 108.248 25.7791C108.248 26.6442 108.024 27.4123 107.576 28.0835C107.134 28.7546 106.49 29.2841 105.645 29.6719C104.805 30.0597 103.788 30.2536 102.595 30.2536C101.451 30.2536 100.462 30.0721 99.6268 29.7092C98.7915 29.3462 98.1378 28.8317 97.6655 28.1655C97.1932 27.4943 96.9322 26.6989 96.8825 25.7791H99.1942C99.239 26.331 99.418 26.7908 99.7312 27.1587C100.049 27.5217 100.455 27.7926 100.947 27.9716C101.444 28.1456 101.988 28.2326 102.58 28.2326C103.231 28.2326 103.81 28.1307 104.317 27.9268C104.83 27.718 105.232 27.4297 105.526 27.0618C105.819 26.6889 105.966 26.2539 105.966 25.7567C105.966 25.3043 105.836 24.9339 105.578 24.6456C105.324 24.3572 104.979 24.1186 104.541 23.9297C104.109 23.7408 103.619 23.5742 103.072 23.43L101.267 22.9379C100.044 22.6048 99.0749 22.1151 98.359 21.4688C97.6481 20.8224 97.2926 19.9673 97.2926 18.9034C97.2926 18.0234 97.5313 17.2553 98.0085 16.5991C98.4858 15.9428 99.1321 15.4332 99.9474 15.0703C100.763 14.7024 101.683 14.5185 102.707 14.5185C103.741 14.5185 104.653 14.6999 105.444 15.0629C106.239 15.4258 106.865 15.9254 107.323 16.5618C107.78 17.1932 108.019 17.919 108.039 18.7393H105.816ZM113.305 14.7273V30H111.001V14.7273H113.305ZM126.997 19.5522C126.853 19.0998 126.659 18.6946 126.416 18.3366C126.177 17.9737 125.891 17.6655 125.558 17.4119C125.225 17.1534 124.845 16.957 124.417 16.8228C123.994 16.6886 123.53 16.6214 123.022 16.6214C122.162 16.6214 121.387 16.8427 120.696 17.2852C120.005 17.7276 119.458 18.3764 119.055 19.2315C118.657 20.0817 118.459 21.1232 118.459 22.3562C118.459 23.5941 118.66 24.6406 119.063 25.4957C119.465 26.3509 120.017 26.9996 120.718 27.4421C121.419 27.8846 122.217 28.1058 123.112 28.1058C123.942 28.1058 124.666 27.9368 125.282 27.5987C125.903 27.2607 126.383 26.7834 126.721 26.1669C127.064 25.5455 127.236 24.8146 127.236 23.9744L127.832 24.0863H123.462V22.1847H129.466V23.9222C129.466 25.2049 129.192 26.3185 128.645 27.2631C128.103 28.2028 127.353 28.9286 126.393 29.4407C125.439 29.9528 124.345 30.2088 123.112 30.2088C121.73 30.2088 120.517 29.8906 119.473 29.2543C118.434 28.6179 117.623 27.7156 117.042 26.5472C116.46 25.3739 116.169 23.9819 116.169 22.3711C116.169 21.1531 116.338 20.0593 116.676 19.0898C117.014 18.1204 117.489 17.2976 118.101 16.6214C118.717 15.9403 119.44 15.4208 120.271 15.0629C121.106 14.6999 122.018 14.5185 123.008 14.5185C123.833 14.5185 124.601 14.6403 125.312 14.8839C126.028 15.1275 126.664 15.473 127.221 15.9205C127.783 16.3679 128.248 16.8999 128.616 17.5163C128.983 18.1278 129.232 18.8065 129.361 19.5522H126.997ZM144.718 14.7273V30H142.6L134.837 18.799H134.695V30H132.391V14.7273H134.524L142.294 25.9432H142.436V14.7273H144.718ZM154.927 30H152.481L157.977 14.7273H160.639L166.135 30H163.689L159.372 17.5014H159.252L154.927 30ZM155.337 24.0192H163.272V25.9581H155.337V24.0192ZM170.019 30L165.783 14.7273H168.207L171.182 26.5547H171.324L174.419 14.7273H176.82L179.915 26.5621H180.057L183.025 14.7273H185.456L181.212 30H178.893L175.679 18.5604H175.56L172.346 30H170.019ZM187.534 30H185.088L190.585 14.7273H193.247L198.743 30H196.297L191.979 17.5014H191.86L187.534 30ZM187.945 24.0192H195.879V25.9581H187.945V24.0192ZM200.948 30V14.7273H206.392C207.576 14.7273 208.557 14.9311 209.338 15.3388C210.123 15.7464 210.71 16.3107 211.098 17.0316C211.486 17.7475 211.68 18.5753 211.68 19.5149C211.68 20.4496 211.483 21.2724 211.09 21.9833C210.703 22.6893 210.116 23.2386 209.331 23.6314C208.55 24.0241 207.568 24.2205 206.385 24.2205H202.261V22.2369H206.176C206.922 22.2369 207.528 22.13 207.996 21.9162C208.468 21.7024 208.813 21.3917 209.032 20.984C209.251 20.5763 209.36 20.0866 209.36 19.5149C209.36 18.9382 209.248 18.4386 209.025 18.016C208.806 17.5934 208.46 17.2702 207.988 17.0465C207.521 16.8178 206.907 16.7035 206.146 16.7035H203.253V30H200.948ZM208.488 23.1094L212.261 30H209.636L205.937 23.1094H208.488ZM219.428 30H214.484V14.7273H219.584C221.081 14.7273 222.366 15.033 223.44 15.6445C224.514 16.2511 225.337 17.1236 225.908 18.2621C226.485 19.3956 226.773 20.7553 226.773 22.3413C226.773 23.9322 226.483 25.2994 225.901 26.4428C225.324 27.5863 224.489 28.4663 223.395 29.0827C222.301 29.6942 220.979 30 219.428 30ZM216.788 27.9865H219.301C220.464 27.9865 221.431 27.7678 222.202 27.3303C222.973 26.8878 223.549 26.2489 223.932 25.4137C224.315 24.5735 224.506 23.5494 224.506 22.3413C224.506 21.1431 224.315 20.1264 223.932 19.2912C223.554 18.456 222.99 17.8221 222.239 17.3896C221.489 16.957 220.556 16.7408 219.443 16.7408H216.788V27.9865ZM72.6683 55L68.4325 39.7273H70.8562L73.8317 51.5547H73.9734L77.0682 39.7273H79.4695L82.5643 51.5621H82.706L85.674 39.7273H88.1051L83.8619 55H81.5426L78.3285 43.5604H78.2092L74.995 55H72.6683ZM92.5106 39.7273V55H90.2062V39.7273H92.5106ZM108.193 39.7273V55H106.076L98.3124 43.799H98.1707V55H95.8664V39.7273H97.9992L105.77 50.9432H105.911V39.7273H108.193ZM123.882 39.7273V55H121.764L114.001 43.799H113.859V55H111.555V39.7273H113.688L121.458 50.9432H121.6V39.7273H123.882ZM127.243 55V39.7273H136.819V41.7109H129.548V46.3643H136.319V48.3406H129.548V53.0163H136.908V55H127.243ZM139.897 55V39.7273H145.341C146.524 39.7273 147.506 39.9311 148.286 40.3388C149.072 40.7464 149.658 41.3107 150.046 42.0316C150.434 42.7475 150.628 43.5753 150.628 44.5149C150.628 45.4496 150.431 46.2724 150.039 46.9833C149.651 47.6893 149.064 48.2386 148.279 48.6314C147.498 49.0241 146.516 49.2205 145.333 49.2205H141.209V47.2369H145.124C145.87 47.2369 146.477 47.13 146.944 46.9162C147.416 46.7024 147.762 46.3917 147.98 45.984C148.199 45.5763 148.309 45.0866 148.309 44.5149C148.309 43.9382 148.197 43.4386 147.973 43.016C147.754 42.5934 147.409 42.2702 146.936 42.0465C146.469 41.8178 145.855 41.7035 145.094 41.7035H142.201V55H139.897ZM147.436 48.1094L151.21 55H148.585L144.886 48.1094H147.436Z" fill="white"/>
</svg>
