<svg width="207" height="70" viewBox="0 0 207 70" fill="none" xmlns="http://www.w3.org/2000/svg">
<path d="M47.0402 23.4593C47.624 26.7927 45.0006 29 45.0006 29C45.0006 29 41.7936 27.874 41.2098 24.5407C40.626 21.2073 43.2494 19 43.2494 19C43.2494 19 46.4564 20.126 47.0402 23.4593Z" stroke="white" stroke-width="3" stroke-linecap="round" stroke-linejoin="round"/>
<path d="M51.854 38.1774C49.1642 40.4356 45.8736 39.1784 45.8736 39.1784C45.8736 39.1784 45.273 35.6628 47.9628 33.4046C50.6524 31.1464 53.943 32.4038 53.943 32.4038C53.943 32.4038 54.5436 35.9192 51.854 38.1774Z" stroke="white" stroke-width="3" stroke-linecap="round" stroke-linejoin="round"/>
<path d="M43.467 50.6524C40.467 49.5012 40 46.2732 40 46.2732C40 46.2732 42.533 44.1964 45.533 45.3476C48.533 46.4988 49 49.7268 49 49.7268C49 49.7268 46.467 51.8036 43.467 50.6524Z" stroke="white" stroke-width="3" stroke-linecap="round" stroke-linejoin="round"/>
<path d="M40 46.2732C42.8102 43.8716 46.0012 39.1128 46.0012 34.4546C46.0012 32.5256 45.6914 30.6844 45.1288 29" stroke="white" stroke-width="3" stroke-linecap="round" stroke-linejoin="round"/>
<path d="M20.9597 23.4593C20.376 26.7927 22.9994 29 22.9994 29C22.9994 29 26.2065 27.874 26.7903 24.5407C27.374 21.2073 24.7506 19 24.7506 19C24.7506 19 21.5435 20.126 20.9597 23.4593Z" stroke="white" stroke-width="3" stroke-linecap="round" stroke-linejoin="round"/>
<path d="M16.1461 38.1774C18.8358 40.4356 22.1263 39.1784 22.1263 39.1784C22.1263 39.1784 22.727 35.6628 20.0373 33.4046C17.3475 31.1464 14.057 32.4038 14.057 32.4038C14.057 32.4038 13.4563 35.9192 16.1461 38.1774Z" stroke="white" stroke-width="3" stroke-linecap="round" stroke-linejoin="round"/>
<path d="M24.533 50.6524C27.533 49.5012 28 46.2732 28 46.2732C28 46.2732 25.467 44.1964 22.467 45.3476C19.467 46.4988 19 49.7268 19 49.7268C19 49.7268 21.533 51.8036 24.533 50.6524Z" stroke="white" stroke-width="3" stroke-linecap="round" stroke-linejoin="round"/>
<path d="M27.9999 46.2732C25.1897 43.8716 21.9988 39.1128 21.9988 34.4546C21.9988 32.5256 22.3085 30.6844 22.8711 29" stroke="white" stroke-width="3" stroke-linecap="round" stroke-linejoin="round"/>
<circle cx="6" cy="6" r="6" transform="matrix(1 0 0 -1 28 42)" fill="white"/>
<path d="M68.9247 16.7109V14.7273H80.7447V16.7109H75.9794V30H73.6825V16.7109H68.9247ZM86.3414 30.2312C85.2676 30.2312 84.3304 29.9851 83.53 29.4929C82.7296 29.0007 82.1081 28.3121 81.6657 27.4272C81.2232 26.5423 81.002 25.5082 81.002 24.3249C81.002 23.1367 81.2232 22.0977 81.6657 21.2077C82.1081 20.3178 82.7296 19.6268 83.53 19.1346C84.3304 18.6424 85.2676 18.3963 86.3414 18.3963C87.4153 18.3963 88.3525 18.6424 89.1529 19.1346C89.9533 19.6268 90.5748 20.3178 91.0172 21.2077C91.4597 22.0977 91.6809 23.1367 91.6809 24.3249C91.6809 25.5082 91.4597 26.5423 91.0172 27.4272C90.5748 28.3121 89.9533 29.0007 89.1529 29.4929C88.3525 29.9851 87.4153 30.2312 86.3414 30.2312ZM86.3489 28.3594C87.0449 28.3594 87.6216 28.1754 88.079 27.8075C88.5364 27.4396 88.8745 26.9499 89.0932 26.3384C89.3169 25.7269 89.4288 25.0533 89.4288 24.3175C89.4288 23.5866 89.3169 22.9155 89.0932 22.304C88.8745 21.6875 88.5364 21.1928 88.079 20.82C87.6216 20.4471 87.0449 20.2607 86.3489 20.2607C85.6479 20.2607 85.0662 20.4471 84.6039 20.82C84.1465 21.1928 83.8059 21.6875 83.5822 22.304C83.3635 22.9155 83.2541 23.5866 83.2541 24.3175C83.2541 25.0533 83.3635 25.7269 83.5822 26.3384C83.8059 26.9499 84.1465 27.4396 84.6039 27.8075C85.0662 28.1754 85.6479 28.3594 86.3489 28.3594ZM94.1698 34.2955V18.5455H96.3474V20.4023H96.5338C96.6631 20.1637 96.8495 19.8878 97.0931 19.5746C97.3367 19.2614 97.6748 18.9879 98.1073 18.7543C98.5399 18.5156 99.1116 18.3963 99.8225 18.3963C100.747 18.3963 101.573 18.63 102.298 19.0973C103.024 19.5646 103.593 20.2383 104.006 21.1183C104.424 21.9982 104.633 23.0572 104.633 24.2951C104.633 25.533 104.426 26.5945 104.014 27.4794C103.601 28.3594 103.034 29.038 102.313 29.5153C101.592 29.9876 100.77 30.2237 99.8449 30.2237C99.1489 30.2237 98.5796 30.1069 98.1372 29.8732C97.6997 29.6396 97.3566 29.3661 97.108 29.0529C96.8595 28.7397 96.6681 28.4613 96.5338 28.2177H96.3996V34.2955H94.1698ZM96.3548 24.2727C96.3548 25.0781 96.4717 25.7841 96.7053 26.3906C96.939 26.9972 97.2771 27.4719 97.7195 27.815C98.162 28.1531 98.7039 28.3221 99.3453 28.3221C100.011 28.3221 100.568 28.1456 101.016 27.7926C101.463 27.4347 101.801 26.9499 102.03 26.3384C102.264 25.7269 102.38 25.0384 102.38 24.2727C102.38 23.517 102.266 22.8384 102.037 22.2369C101.814 21.6353 101.476 21.1605 101.023 20.8125C100.576 20.4645 100.016 20.2905 99.3453 20.2905C98.699 20.2905 98.1521 20.457 97.7046 20.7901C97.2622 21.1232 96.9266 21.5881 96.6979 22.1847C96.4692 22.7812 96.3548 23.4773 96.3548 24.2727ZM112.867 30V14.7273H122.338V16.7109H115.172V21.3643H121.66V23.3406H115.172V30H112.867ZM128.286 30.2536C127.56 30.2536 126.903 30.1193 126.317 29.8509C125.73 29.5774 125.265 29.1822 124.922 28.6651C124.584 28.1481 124.415 27.5142 124.415 26.7635C124.415 26.1172 124.539 25.5852 124.788 25.1676C125.037 24.75 125.372 24.4194 125.795 24.1758C126.217 23.9322 126.69 23.7482 127.212 23.6239C127.734 23.4996 128.266 23.4052 128.808 23.3406C129.494 23.261 130.05 23.1964 130.478 23.1467C130.906 23.092 131.216 23.005 131.41 22.8857C131.604 22.7663 131.701 22.5724 131.701 22.304V22.2518C131.701 21.6005 131.517 21.0959 131.149 20.7379C130.786 20.38 130.244 20.201 129.523 20.201C128.773 20.201 128.181 20.3675 127.749 20.7006C127.321 21.0288 127.025 21.3942 126.861 21.7969L124.766 21.3196C125.014 20.6236 125.377 20.0618 125.854 19.6342C126.337 19.2017 126.891 18.8885 127.517 18.6946C128.144 18.4957 128.803 18.3963 129.494 18.3963C129.951 18.3963 130.436 18.451 130.948 18.5604C131.465 18.6648 131.947 18.8587 132.395 19.142C132.847 19.4254 133.217 19.8306 133.506 20.3576C133.794 20.8796 133.938 21.5582 133.938 22.3935V30H131.761V28.4339H131.671C131.527 28.7223 131.311 29.0057 131.022 29.2841C130.734 29.5625 130.364 29.7937 129.911 29.9776C129.459 30.1616 128.917 30.2536 128.286 30.2536ZM128.77 28.4638C129.387 28.4638 129.914 28.342 130.351 28.0984C130.794 27.8548 131.129 27.5366 131.358 27.1438C131.592 26.7461 131.708 26.321 131.708 25.8686V24.392C131.629 24.4716 131.475 24.5462 131.246 24.6158C131.022 24.6804 130.766 24.7376 130.478 24.7873C130.19 24.832 129.909 24.8743 129.635 24.9141C129.362 24.9489 129.133 24.9787 128.949 25.0036C128.517 25.0582 128.121 25.1502 127.763 25.2795C127.411 25.4087 127.127 25.5952 126.913 25.8388C126.705 26.0774 126.6 26.3956 126.6 26.7933C126.6 27.3452 126.804 27.7628 127.212 28.0462C127.619 28.3246 128.139 28.4638 128.77 28.4638ZM136.908 30V18.5455H139.048V20.4098H139.19C139.429 19.7784 139.819 19.2862 140.361 18.9332C140.903 18.5753 141.552 18.3963 142.307 18.3963C143.073 18.3963 143.714 18.5753 144.231 18.9332C144.753 19.2912 145.139 19.7834 145.387 20.4098H145.506C145.78 19.7983 146.215 19.3111 146.812 18.9482C147.408 18.5803 148.119 18.3963 148.944 18.3963C149.983 18.3963 150.831 18.7219 151.487 19.3732C152.149 20.0245 152.479 21.0064 152.479 22.3189V30H150.249V22.5277C150.249 21.7521 150.038 21.1903 149.616 20.8423C149.193 20.4943 148.688 20.3203 148.102 20.3203C147.376 20.3203 146.812 20.544 146.409 20.9915C146.006 21.4339 145.805 22.0032 145.805 22.6992V30H143.582V22.386C143.582 21.7646 143.389 21.2649 143.001 20.8871C142.613 20.5092 142.108 20.3203 141.487 20.3203C141.064 20.3203 140.674 20.4322 140.316 20.6559C139.963 20.8746 139.677 21.1804 139.459 21.5732C139.245 21.9659 139.138 22.4208 139.138 22.9379V30H136.908ZM160.293 30.2312C159.219 30.2312 158.282 29.9851 157.481 29.4929C156.681 29.0007 156.059 28.3121 155.617 27.4272C155.174 26.5423 154.953 25.5082 154.953 24.3249C154.953 23.1367 155.174 22.0977 155.617 21.2077C156.059 20.3178 156.681 19.6268 157.481 19.1346C158.282 18.6424 159.219 18.3963 160.293 18.3963C161.366 18.3963 162.304 18.6424 163.104 19.1346C163.904 19.6268 164.526 20.3178 164.968 21.2077C165.411 22.0977 165.632 23.1367 165.632 24.3249C165.632 25.5082 165.411 26.5423 164.968 27.4272C164.526 28.3121 163.904 29.0007 163.104 29.4929C162.304 29.9851 161.366 30.2312 160.293 30.2312ZM160.3 28.3594C160.996 28.3594 161.573 28.1754 162.03 27.8075C162.488 27.4396 162.826 26.9499 163.044 26.3384C163.268 25.7269 163.38 25.0533 163.38 24.3175C163.38 23.5866 163.268 22.9155 163.044 22.304C162.826 21.6875 162.488 21.1928 162.03 20.82C161.573 20.4471 160.996 20.2607 160.3 20.2607C159.599 20.2607 159.017 20.4471 158.555 20.82C158.098 21.1928 157.757 21.6875 157.533 22.304C157.315 22.9155 157.205 23.5866 157.205 24.3175C157.205 25.0533 157.315 25.7269 157.533 26.3384C157.757 26.9499 158.098 27.4396 158.555 27.8075C159.017 28.1754 159.599 28.3594 160.3 28.3594ZM175.377 25.2496V18.5455H177.614V30H175.422V28.0163H175.302C175.039 28.6278 174.616 29.1374 174.035 29.5451C173.458 29.9478 172.74 30.1491 171.88 30.1491C171.144 30.1491 170.492 29.9876 169.926 29.6644C169.364 29.3363 168.921 28.8516 168.598 28.2102C168.28 27.5689 168.121 26.7759 168.121 25.8313V18.5455H170.351V25.5629C170.351 26.3434 170.567 26.9648 171 27.4272C171.432 27.8896 171.994 28.1207 172.685 28.1207C173.103 28.1207 173.518 28.0163 173.93 27.8075C174.348 27.5987 174.693 27.283 174.967 26.8604C175.245 26.4379 175.382 25.9009 175.377 25.2496ZM189.194 21.342L187.173 21.6999C187.088 21.4414 186.954 21.1953 186.77 20.9616C186.591 20.728 186.347 20.5366 186.039 20.3874C185.731 20.2383 185.346 20.1637 184.883 20.1637C184.252 20.1637 183.725 20.3054 183.302 20.5888C182.88 20.8672 182.669 21.2276 182.669 21.6701C182.669 22.0529 182.81 22.3612 183.094 22.5948C183.377 22.8285 183.834 23.0199 184.466 23.169L186.285 23.5866C187.339 23.8303 188.125 24.2056 188.642 24.7127C189.159 25.2198 189.417 25.8786 189.417 26.6889C189.417 27.375 189.219 27.9865 188.821 28.5234C188.428 29.0554 187.879 29.473 187.173 29.7763C186.472 30.0795 185.659 30.2312 184.734 30.2312C183.452 30.2312 182.405 29.9577 181.595 29.4109C180.784 28.859 180.287 28.076 180.103 27.0618L182.258 26.7337C182.393 27.2955 182.669 27.7205 183.086 28.0089C183.504 28.2923 184.048 28.4339 184.719 28.4339C185.45 28.4339 186.034 28.2823 186.472 27.979C186.909 27.6708 187.128 27.2955 187.128 26.853C187.128 26.495 186.994 26.1942 186.725 25.9506C186.462 25.707 186.057 25.5231 185.51 25.3988L183.571 24.9737C182.502 24.7301 181.711 24.3423 181.199 23.8104C180.692 23.2784 180.439 22.6048 180.439 21.7894C180.439 21.1133 180.628 20.5217 181.006 20.0146C181.383 19.5075 181.905 19.1122 182.572 18.8288C183.238 18.5405 184.001 18.3963 184.861 18.3963C186.099 18.3963 187.073 18.6648 187.784 19.2017C188.495 19.7337 188.965 20.4471 189.194 21.342ZM71.9822 55L68.6115 43.5455H70.9158L73.1605 51.9574H73.2724L75.5245 43.5455H77.8288L80.0661 51.9201H80.1779L82.4077 43.5455H84.712L81.3487 55H79.0742L76.7475 46.7298H76.576L74.2493 55H71.9822ZM91.3043 55.2312C90.2305 55.2312 89.2933 54.9851 88.4929 54.4929C87.6925 54.0007 87.071 53.3121 86.6286 52.4272C86.1861 51.5423 85.9648 50.5082 85.9648 49.3249C85.9648 48.1367 86.1861 47.0977 86.6286 46.2077C87.071 45.3178 87.6925 44.6268 88.4929 44.1346C89.2933 43.6424 90.2305 43.3963 91.3043 43.3963C92.3782 43.3963 93.3153 43.6424 94.1158 44.1346C94.9162 44.6268 95.5376 45.3178 95.9801 46.2077C96.4226 47.0977 96.6438 48.1367 96.6438 49.3249C96.6438 50.5082 96.4226 51.5423 95.9801 52.4272C95.5376 53.3121 94.9162 54.0007 94.1158 54.4929C93.3153 54.9851 92.3782 55.2312 91.3043 55.2312ZM91.3118 53.3594C92.0078 53.3594 92.5845 53.1754 93.0419 52.8075C93.4993 52.4396 93.8374 51.9499 94.0561 51.3384C94.2798 50.7269 94.3917 50.0533 94.3917 49.3175C94.3917 48.5866 94.2798 47.9155 94.0561 47.304C93.8374 46.6875 93.4993 46.1928 93.0419 45.82C92.5845 45.4471 92.0078 45.2607 91.3118 45.2607C90.6108 45.2607 90.0291 45.4471 89.5668 45.82C89.1094 46.1928 88.7688 46.6875 88.5451 47.304C88.3263 47.9155 88.217 48.5866 88.217 49.3175C88.217 50.0533 88.3263 50.7269 88.5451 51.3384C88.7688 51.9499 89.1094 52.4396 89.5668 52.8075C90.0291 53.1754 90.6108 53.3594 91.3118 53.3594ZM99.1327 55V43.5455H101.288V45.3651H101.407C101.616 44.7486 101.984 44.2638 102.511 43.9109C103.043 43.5529 103.644 43.3739 104.316 43.3739C104.455 43.3739 104.619 43.3789 104.808 43.3888C105.002 43.3988 105.153 43.4112 105.263 43.4261V45.5589C105.173 45.5341 105.014 45.5067 104.785 45.4769C104.557 45.4421 104.328 45.4247 104.099 45.4247C103.572 45.4247 103.103 45.5366 102.69 45.7603C102.282 45.979 101.959 46.2848 101.72 46.6776C101.482 47.0653 101.362 47.5078 101.362 48.005V55H99.1327ZM109.422 39.7273V55H107.192V39.7273H109.422ZM116.71 55.2237C115.785 55.2237 114.96 54.9876 114.234 54.5153C113.513 54.038 112.946 53.3594 112.534 52.4794C112.126 51.5945 111.922 50.533 111.922 49.2951C111.922 48.0572 112.128 46.9982 112.541 46.1183C112.959 45.2383 113.53 44.5646 114.256 44.0973C114.982 43.63 115.805 43.3963 116.725 43.3963C117.436 43.3963 118.007 43.5156 118.44 43.7543C118.877 43.9879 119.215 44.2614 119.454 44.5746C119.698 44.8878 119.887 45.1637 120.021 45.4023H120.155V39.7273H122.385V55H120.207V53.2177H120.021C119.887 53.4613 119.693 53.7397 119.439 54.0529C119.191 54.3661 118.848 54.6396 118.41 54.8732C117.973 55.1069 117.406 55.2237 116.71 55.2237ZM117.202 53.3221C117.843 53.3221 118.385 53.1531 118.828 52.815C119.275 52.4719 119.613 51.9972 119.842 51.3906C120.076 50.7841 120.192 50.0781 120.192 49.2727C120.192 48.4773 120.078 47.7812 119.849 47.1847C119.621 46.5881 119.285 46.1232 118.843 45.7901C118.4 45.457 117.853 45.2905 117.202 45.2905C116.531 45.2905 115.972 45.4645 115.524 45.8125C115.077 46.1605 114.739 46.6353 114.51 47.2369C114.286 47.8384 114.174 48.517 114.174 49.2727C114.174 50.0384 114.289 50.7269 114.517 51.3384C114.746 51.9499 115.084 52.4347 115.532 52.7926C115.984 53.1456 116.541 53.3221 117.202 53.3221ZM128.051 55L124.68 43.5455H126.984L129.229 51.9574H129.341L131.593 43.5455H133.897L136.134 51.9201H136.246L138.476 43.5455H140.78L137.417 55H135.143L132.816 46.7298H132.644L130.318 55H128.051ZM142.896 55V43.5455H145.126V55H142.896ZM144.022 41.7781C143.635 41.7781 143.302 41.6488 143.023 41.3903C142.75 41.1268 142.613 40.8136 142.613 40.4506C142.613 40.0827 142.75 39.7695 143.023 39.511C143.302 39.2475 143.635 39.1158 144.022 39.1158C144.41 39.1158 144.741 39.2475 145.014 39.511C145.293 39.7695 145.432 40.0827 145.432 40.4506C145.432 40.8136 145.293 41.1268 145.014 41.3903C144.741 41.6488 144.41 41.7781 144.022 41.7781ZM152.414 55.2237C151.489 55.2237 150.664 54.9876 149.938 54.5153C149.217 54.038 148.65 53.3594 148.238 52.4794C147.83 51.5945 147.626 50.533 147.626 49.2951C147.626 48.0572 147.833 46.9982 148.245 46.1183C148.663 45.2383 149.235 44.5646 149.96 44.0973C150.686 43.63 151.509 43.3963 152.429 43.3963C153.14 43.3963 153.711 43.5156 154.144 43.7543C154.581 43.9879 154.92 44.2614 155.158 44.5746C155.402 44.8878 155.591 45.1637 155.725 45.4023H155.859V39.7273H158.089V55H155.911V53.2177H155.725C155.591 53.4613 155.397 53.7397 155.143 54.0529C154.895 54.3661 154.552 54.6396 154.114 54.8732C153.677 55.1069 153.11 55.2237 152.414 55.2237ZM152.906 53.3221C153.547 53.3221 154.089 53.1531 154.532 52.815C154.979 52.4719 155.317 51.9972 155.546 51.3906C155.78 50.7841 155.896 50.0781 155.896 49.2727C155.896 48.4773 155.782 47.7812 155.553 47.1847C155.325 46.5881 154.989 46.1232 154.547 45.7901C154.104 45.457 153.557 45.2905 152.906 45.2905C152.235 45.2905 151.676 45.4645 151.228 45.8125C150.781 46.1605 150.443 46.6353 150.214 47.2369C149.99 47.8384 149.878 48.517 149.878 49.2727C149.878 50.0384 149.993 50.7269 150.221 51.3384C150.45 51.9499 150.788 52.4347 151.236 52.7926C151.688 53.1456 152.245 53.3221 152.906 53.3221ZM166.208 55.2312C165.08 55.2312 164.108 54.9901 163.292 54.5078C162.482 54.0206 161.856 53.337 161.413 52.457C160.976 51.5721 160.757 50.5355 160.757 49.3473C160.757 48.174 160.976 47.1399 161.413 46.245C161.856 45.3501 162.472 44.6516 163.263 44.1495C164.058 43.6474 164.988 43.3963 166.052 43.3963C166.698 43.3963 167.324 43.5032 167.931 43.717C168.537 43.9308 169.082 44.2663 169.564 44.7237C170.046 45.1811 170.427 45.7752 170.705 46.506C170.983 47.2319 171.123 48.1143 171.123 49.1534V49.9439H162.017V48.2734H168.938C168.938 47.6868 168.818 47.1673 168.58 46.7148C168.341 46.2575 168.005 45.897 167.573 45.6335C167.145 45.37 166.643 45.2383 166.066 45.2383C165.44 45.2383 164.893 45.3924 164.426 45.7006C163.964 46.0039 163.606 46.4016 163.352 46.8938C163.103 47.381 162.979 47.9105 162.979 48.4822V49.7873C162.979 50.5529 163.113 51.2042 163.382 51.7411C163.655 52.2781 164.036 52.6882 164.523 52.9716C165.01 53.25 165.579 53.3892 166.231 53.3892C166.653 53.3892 167.038 53.3295 167.386 53.2102C167.734 53.0859 168.035 52.902 168.289 52.6584C168.542 52.4148 168.736 52.114 168.87 51.756L170.981 52.1364C170.812 52.7578 170.509 53.3022 170.071 53.7695C169.639 54.2319 169.094 54.5923 168.438 54.8509C167.787 55.1044 167.043 55.2312 166.208 55.2312Z" fill="white"/>
</svg>
