<svg width="227" height="88" viewBox="0 0 227 88" fill="none" xmlns="http://www.w3.org/2000/svg">
<path d="M30.08 35.8153C30.7472 35.8199 31.3963 35.9379 32.0273 36.1694C32.6627 36.3963 33.2346 36.7685 33.743 37.286C34.2514 37.7989 34.6553 38.4865 34.9549 39.349C35.2545 40.2114 35.4043 41.278 35.4043 42.549C35.4088 43.7473 35.2817 44.8185 35.023 45.7626C34.7688 46.7022 34.4034 47.4965 33.9268 48.1456C33.4502 48.7946 32.876 49.2894 32.2043 49.6298C31.5325 49.9703 30.7768 50.1405 29.937 50.1405C29.0565 50.1405 28.2758 49.968 27.5949 49.623C26.9186 49.2781 26.3716 48.806 25.954 48.2068C25.5365 47.6077 25.28 46.9223 25.1847 46.1507H27.6698C27.7969 46.7044 28.0556 47.1447 28.446 47.4715C28.8409 47.7938 29.3379 47.9549 29.937 47.9549C30.9038 47.9549 31.6482 47.5351 32.1702 46.6954C32.6922 45.8556 32.9532 44.6891 32.9532 43.1958H32.8579C32.6355 43.5952 32.3473 43.9402 31.9932 44.2307C31.6392 44.5166 31.2375 44.7368 30.7881 44.8911C30.3433 45.0454 29.8712 45.1226 29.3719 45.1226C28.5549 45.1226 27.8196 44.9274 27.166 44.5371C26.5169 44.1467 26.0017 43.6111 25.6204 42.9302C25.2437 42.2494 25.0531 41.4709 25.0485 40.5949C25.0485 39.6871 25.2573 38.8724 25.6749 38.1507C26.097 37.4244 26.6848 36.8525 27.4383 36.4349C28.1918 36.0128 29.0724 35.8063 30.08 35.8153ZM30.0868 37.8579C29.5966 37.8579 29.1541 37.9782 28.7592 38.2187C28.3688 38.4548 28.0602 38.777 27.8332 39.1856C27.6108 39.5895 27.4996 40.0412 27.4996 40.5404C27.5041 41.0352 27.6153 41.4846 27.8332 41.8885C28.0556 42.2925 28.3575 42.6125 28.7387 42.8485C29.1245 43.0846 29.5648 43.2026 30.0596 43.2026C30.4272 43.2026 30.7699 43.1322 31.0877 42.9915C31.4054 42.8508 31.6823 42.6556 31.9183 42.406C32.1589 42.1518 32.345 41.8636 32.4766 41.5413C32.6128 41.219 32.6786 40.8786 32.6741 40.52C32.6741 40.0434 32.5606 39.6031 32.3336 39.1992C32.1112 38.7952 31.8048 38.4707 31.4145 38.2256C31.0287 37.9804 30.5861 37.8579 30.0868 37.8579ZM42.8256 50.2154C41.7044 50.2154 40.7422 49.9317 39.9388 49.3643C39.1399 48.7924 38.5249 47.9685 38.0936 46.8928C37.667 45.8125 37.4536 44.5121 37.4536 42.9915C37.4582 41.4709 37.6738 40.1773 38.1005 39.1107C38.5317 38.0395 39.1467 37.2224 39.9456 36.6596C40.749 36.0968 41.709 35.8153 42.8256 35.8153C43.9422 35.8153 44.9022 36.0968 45.7056 36.6596C46.509 37.2224 47.124 38.0395 47.5507 39.1107C47.9819 40.1819 48.1975 41.4755 48.1975 42.9915C48.1975 44.5166 47.9819 45.8193 47.5507 46.8996C47.124 47.9754 46.509 48.7969 45.7056 49.3643C44.9067 49.9317 43.9467 50.2154 42.8256 50.2154ZM42.8256 48.0843C43.6971 48.0843 44.3847 47.6554 44.8886 46.7975C45.3969 45.9351 45.6511 44.6664 45.6511 42.9915C45.6511 41.884 45.5354 40.9535 45.3039 40.2C45.0724 39.4465 44.7456 38.8792 44.3234 38.4979C43.9013 38.1121 43.402 37.9192 42.8256 37.9192C41.9586 37.9192 41.2732 38.3504 40.7694 39.2128C40.2656 40.0707 40.0114 41.3302 40.0068 42.9915C40.0023 44.1036 40.1135 45.0386 40.3405 45.7966C40.5719 46.5546 40.8988 47.1266 41.3209 47.5124C41.743 47.8937 42.2446 48.0843 42.8256 48.0843ZM54.5992 47.7166V38.2936H56.7371V47.7166H54.5992ZM50.9566 44.0741V41.9362H60.3796V44.0741H50.9566Z" fill="white"/>
<path d="M69.1935 36.5366C69.6081 38.9036 67.7452 40.4711 67.7452 40.4711C67.7452 40.4711 65.4679 39.6715 65.0533 37.3045C64.6388 34.9375 66.5017 33.37 66.5017 33.37C66.5017 33.37 68.779 34.1696 69.1935 36.5366Z" stroke="white" stroke-width="2.13031" stroke-linecap="round" stroke-linejoin="round"/>
<path d="M72.4761 46.988C70.566 48.5916 68.2294 47.6988 68.2294 47.6988C68.2294 47.6988 67.8029 45.2024 69.7129 43.5988C71.6228 41.9953 73.9595 42.8882 73.9595 42.8882C73.9595 42.8882 74.386 45.3845 72.4761 46.988Z" stroke="white" stroke-width="2.13031" stroke-linecap="round" stroke-linejoin="round"/>
<path d="M66.3899 55.8466C64.2596 55.0291 63.928 52.7369 63.928 52.7369C63.928 52.7369 65.7267 51.2621 67.857 52.0796C69.9873 52.8971 70.3189 55.1893 70.3189 55.1893C70.3189 55.1893 68.5202 56.664 66.3899 55.8466Z" stroke="white" stroke-width="2.13031" stroke-linecap="round" stroke-linejoin="round"/>
<path d="M63.928 52.7369C65.9235 51.0315 68.1895 47.6522 68.1895 44.3444C68.1895 42.9746 67.9695 41.6672 67.57 40.4711" stroke="white" stroke-width="2.13031" stroke-linecap="round" stroke-linejoin="round"/>
<path d="M16.9423 36.5366C16.5277 38.9036 18.3906 40.4711 18.3906 40.4711C18.3906 40.4711 20.668 39.6715 21.0825 37.3045C21.4971 34.9375 19.6342 33.37 19.6342 33.37C19.6342 33.37 17.3568 34.1696 16.9423 36.5366Z" stroke="white" stroke-width="2.13031" stroke-linecap="round" stroke-linejoin="round"/>
<path d="M13.5241 46.988C15.4341 48.5916 17.7707 47.6988 17.7707 47.6988C17.7707 47.6988 18.1973 45.2024 16.2873 43.5988C14.3772 41.9953 12.0407 42.8882 12.0407 42.8882C12.0407 42.8882 11.6141 45.3845 13.5241 46.988Z" stroke="white" stroke-width="2.13031" stroke-linecap="round" stroke-linejoin="round"/>
<path d="M19.4798 55.8466C21.6101 55.0291 21.9417 52.7369 21.9417 52.7369C21.9417 52.7369 20.143 51.2621 18.0127 52.0796C15.8824 52.8971 15.5508 55.1893 15.5508 55.1893C15.5508 55.1893 17.3495 56.664 19.4798 55.8466Z" stroke="white" stroke-width="2.13031" stroke-linecap="round" stroke-linejoin="round"/>
<path d="M21.9416 52.7369C19.946 51.0315 17.6802 47.6522 17.6802 44.3444C17.6802 42.9746 17.9001 41.6672 18.2996 40.4711" stroke="white" stroke-width="2.13031" stroke-linecap="round" stroke-linejoin="round"/>
<path d="M91.9822 23.7273V39H89.6779V23.7273H91.9822ZM97.3888 32.1989V39H95.1591V27.5455H97.2994V29.4098H97.4411C97.7045 28.8033 98.1172 28.3161 98.679 27.9482C99.2457 27.5803 99.9592 27.3963 100.819 27.3963C101.6 27.3963 102.283 27.5604 102.87 27.8885C103.457 28.2116 103.912 28.6939 104.235 29.3352C104.558 29.9766 104.719 30.7695 104.719 31.7141V39H102.49V31.9826C102.49 31.1523 102.273 30.5036 101.841 30.0362C101.408 29.5639 100.814 29.3278 100.059 29.3278C99.5415 29.3278 99.0817 29.4396 98.679 29.6634C98.2813 29.8871 97.9656 30.2152 97.7319 30.6477C97.5032 31.0753 97.3888 31.5923 97.3888 32.1989ZM113.057 27.5455V29.3352H106.8V27.5455H113.057ZM108.478 24.8011H110.708V35.6367C110.708 36.0692 110.772 36.3949 110.902 36.6136C111.031 36.8274 111.197 36.9741 111.401 37.0536C111.61 37.1282 111.836 37.1655 112.08 37.1655C112.259 37.1655 112.415 37.1531 112.55 37.1282C112.684 37.1033 112.788 37.0835 112.863 37.0685L113.266 38.9105C113.136 38.9602 112.952 39.0099 112.714 39.0597C112.475 39.1143 112.177 39.1442 111.819 39.1491C111.232 39.1591 110.685 39.0547 110.178 38.8359C109.671 38.6172 109.261 38.2791 108.948 37.8217C108.635 37.3643 108.478 36.7901 108.478 36.0991V24.8011ZM120.337 39.2312C119.209 39.2312 118.237 38.9901 117.421 38.5078C116.611 38.0206 115.984 37.337 115.542 36.457C115.104 35.5721 114.886 34.5355 114.886 33.3473C114.886 32.174 115.104 31.1399 115.542 30.245C115.984 29.3501 116.601 28.6516 117.391 28.1495C118.187 27.6474 119.117 27.3963 120.18 27.3963C120.827 27.3963 121.453 27.5032 122.06 27.717C122.666 27.9308 123.211 28.2663 123.693 28.7237C124.175 29.1811 124.555 29.7752 124.834 30.506C125.112 31.2319 125.252 32.1143 125.252 33.1534V33.9439H116.146V32.2734H123.066C123.066 31.6868 122.947 31.1673 122.709 30.7148C122.47 30.2575 122.134 29.897 121.702 29.6335C121.274 29.37 120.772 29.2383 120.195 29.2383C119.569 29.2383 119.022 29.3924 118.555 29.7006C118.092 30.0039 117.734 30.4016 117.481 30.8938C117.232 31.381 117.108 31.9105 117.108 32.4822V33.7873C117.108 34.5529 117.242 35.2042 117.511 35.7411C117.784 36.2781 118.165 36.6882 118.652 36.9716C119.139 37.25 119.708 37.3892 120.359 37.3892C120.782 37.3892 121.167 37.3295 121.515 37.2102C121.863 37.0859 122.164 36.902 122.418 36.6584C122.671 36.4148 122.865 36.114 122.999 35.756L125.11 36.1364C124.941 36.7578 124.638 37.3022 124.2 37.7695C123.767 38.2319 123.223 38.5923 122.567 38.8509C121.916 39.1044 121.172 39.2312 120.337 39.2312ZM127.725 39V27.5455H129.881V29.3651H130C130.209 28.7486 130.577 28.2638 131.104 27.9109C131.636 27.5529 132.237 27.3739 132.908 27.3739C133.048 27.3739 133.212 27.3789 133.401 27.3888C133.594 27.3988 133.746 27.4112 133.855 27.4261V29.5589C133.766 29.5341 133.607 29.5067 133.378 29.4769C133.15 29.4421 132.921 29.4247 132.692 29.4247C132.165 29.4247 131.695 29.5366 131.283 29.7603C130.875 29.979 130.552 30.2848 130.313 30.6776C130.075 31.0653 129.955 31.5078 129.955 32.005V39H127.725ZM138.015 32.1989V39H135.785V27.5455H137.925V29.4098H138.067C138.331 28.8033 138.743 28.3161 139.305 27.9482C139.872 27.5803 140.585 27.3963 141.445 27.3963C142.226 27.3963 142.909 27.5604 143.496 27.8885C144.083 28.2116 144.538 28.6939 144.861 29.3352C145.184 29.9766 145.345 30.7695 145.345 31.7141V39H143.116V31.9826C143.116 31.1523 142.899 30.5036 142.467 30.0362C142.034 29.5639 141.44 29.3278 140.685 29.3278C140.168 29.3278 139.708 29.4396 139.305 29.6634C138.907 29.8871 138.592 30.2152 138.358 30.6477C138.129 31.0753 138.015 31.5923 138.015 32.1989ZM151.669 39.2536C150.943 39.2536 150.287 39.1193 149.701 38.8509C149.114 38.5774 148.649 38.1822 148.306 37.6651C147.968 37.1481 147.799 36.5142 147.799 35.7635C147.799 35.1172 147.923 34.5852 148.172 34.1676C148.42 33.75 148.756 33.4194 149.179 33.1758C149.601 32.9322 150.073 32.7482 150.595 32.6239C151.117 32.4996 151.649 32.4052 152.191 32.3406C152.877 32.261 153.434 32.1964 153.862 32.1467C154.289 32.092 154.6 32.005 154.794 31.8857C154.988 31.7663 155.085 31.5724 155.085 31.304V31.2518C155.085 30.6005 154.901 30.0959 154.533 29.7379C154.17 29.38 153.628 29.201 152.907 29.201C152.157 29.201 151.565 29.3675 151.132 29.7006C150.705 30.0288 150.409 30.3942 150.245 30.7969L148.149 30.3196C148.398 29.6236 148.761 29.0618 149.238 28.6342C149.72 28.2017 150.275 27.8885 150.901 27.6946C151.528 27.4957 152.186 27.3963 152.877 27.3963C153.335 27.3963 153.82 27.451 154.332 27.5604C154.849 27.6648 155.331 27.8587 155.778 28.142C156.231 28.4254 156.601 28.8306 156.889 29.3576C157.178 29.8796 157.322 30.5582 157.322 31.3935V39H155.144V37.4339H155.055C154.911 37.7223 154.695 38.0057 154.406 38.2841C154.118 38.5625 153.747 38.7937 153.295 38.9776C152.843 39.1616 152.301 39.2536 151.669 39.2536ZM152.154 37.4638C152.771 37.4638 153.297 37.342 153.735 37.0984C154.177 36.8548 154.513 36.5366 154.742 36.1438C154.975 35.7461 155.092 35.321 155.092 34.8686V33.392C155.013 33.4716 154.859 33.5462 154.63 33.6158C154.406 33.6804 154.15 33.7376 153.862 33.7873C153.573 33.832 153.293 33.8743 153.019 33.9141C152.746 33.9489 152.517 33.9787 152.333 34.0036C151.9 34.0582 151.505 34.1502 151.147 34.2795C150.794 34.4087 150.511 34.5952 150.297 34.8388C150.088 35.0774 149.984 35.3956 149.984 35.7933C149.984 36.3452 150.188 36.7628 150.595 37.0462C151.003 37.3246 151.523 37.4638 152.154 37.4638ZM165.639 27.5455V29.3352H159.382V27.5455H165.639ZM161.06 24.8011H163.29V35.6367C163.29 36.0692 163.354 36.3949 163.484 36.6136C163.613 36.8274 163.779 36.9741 163.983 37.0536C164.192 37.1282 164.418 37.1655 164.662 37.1655C164.841 37.1655 164.998 37.1531 165.132 37.1282C165.266 37.1033 165.37 37.0835 165.445 37.0685L165.848 38.9105C165.718 38.9602 165.534 39.0099 165.296 39.0597C165.057 39.1143 164.759 39.1442 164.401 39.1491C163.814 39.1591 163.267 39.0547 162.76 38.8359C162.253 38.6172 161.843 38.2791 161.53 37.8217C161.217 37.3643 161.06 36.7901 161.06 36.0991V24.8011ZM168.105 39V27.5455H170.335V39H168.105ZM169.231 25.7781C168.844 25.7781 168.511 25.6488 168.232 25.3903C167.959 25.1268 167.822 24.8136 167.822 24.4506C167.822 24.0827 167.959 23.7695 168.232 23.511C168.511 23.2475 168.844 23.1158 169.231 23.1158C169.619 23.1158 169.95 23.2475 170.223 23.511C170.502 23.7695 170.641 24.0827 170.641 24.4506C170.641 24.8136 170.502 25.1268 170.223 25.3903C169.95 25.6488 169.619 25.7781 169.231 25.7781ZM178.16 39.2312C177.086 39.2312 176.149 38.9851 175.348 38.4929C174.548 38.0007 173.926 37.3121 173.484 36.4272C173.042 35.5423 172.82 34.5082 172.82 33.3249C172.82 32.1367 173.042 31.0977 173.484 30.2077C173.926 29.3178 174.548 28.6268 175.348 28.1346C176.149 27.6424 177.086 27.3963 178.16 27.3963C179.234 27.3963 180.171 27.6424 180.971 28.1346C181.772 28.6268 182.393 29.3178 182.836 30.2077C183.278 31.0977 183.499 32.1367 183.499 33.3249C183.499 34.5082 183.278 35.5423 182.836 36.4272C182.393 37.3121 181.772 38.0007 180.971 38.4929C180.171 38.9851 179.234 39.2312 178.16 39.2312ZM178.167 37.3594C178.863 37.3594 179.44 37.1754 179.897 36.8075C180.355 36.4396 180.693 35.9499 180.912 35.3384C181.135 34.7269 181.247 34.0533 181.247 33.3175C181.247 32.5866 181.135 31.9155 180.912 31.304C180.693 30.6875 180.355 30.1928 179.897 29.82C179.44 29.4471 178.863 29.2607 178.167 29.2607C177.466 29.2607 176.885 29.4471 176.422 29.82C175.965 30.1928 175.624 30.6875 175.401 31.304C175.182 31.9155 175.072 32.5866 175.072 33.3175C175.072 34.0533 175.182 34.7269 175.401 35.3384C175.624 35.9499 175.965 36.4396 176.422 36.8075C176.885 37.1754 177.466 37.3594 178.167 37.3594ZM188.218 32.1989V39H185.988V27.5455H188.128V29.4098H188.27C188.534 28.8033 188.946 28.3161 189.508 27.9482C190.075 27.5803 190.788 27.3963 191.648 27.3963C192.429 27.3963 193.112 27.5604 193.699 27.8885C194.286 28.2116 194.741 28.6939 195.064 29.3352C195.387 29.9766 195.549 30.7695 195.549 31.7141V39H193.319V31.9826C193.319 31.1523 193.103 30.5036 192.67 30.0362C192.237 29.5639 191.643 29.3278 190.888 29.3278C190.371 29.3278 189.911 29.4396 189.508 29.6634C189.11 29.8871 188.795 30.2152 188.561 30.6477C188.332 31.0753 188.218 31.5923 188.218 32.1989ZM201.872 39.2536C201.147 39.2536 200.49 39.1193 199.904 38.8509C199.317 38.5774 198.852 38.1822 198.509 37.6651C198.171 37.1481 198.002 36.5142 198.002 35.7635C198.002 35.1172 198.126 34.5852 198.375 34.1676C198.623 33.75 198.959 33.4194 199.382 33.1758C199.804 32.9322 200.277 32.7482 200.799 32.6239C201.321 32.4996 201.853 32.4052 202.394 32.3406C203.081 32.261 203.637 32.1964 204.065 32.1467C204.492 32.092 204.803 32.005 204.997 31.8857C205.191 31.7663 205.288 31.5724 205.288 31.304V31.2518C205.288 30.6005 205.104 30.0959 204.736 29.7379C204.373 29.38 203.831 29.201 203.11 29.201C202.36 29.201 201.768 29.3675 201.335 29.7006C200.908 30.0288 200.612 30.3942 200.448 30.7969L198.353 30.3196C198.601 29.6236 198.964 29.0618 199.441 28.6342C199.924 28.2017 200.478 27.8885 201.104 27.6946C201.731 27.4957 202.389 27.3963 203.081 27.3963C203.538 27.3963 204.023 27.451 204.535 27.5604C205.052 27.6648 205.534 27.8587 205.981 28.142C206.434 28.4254 206.804 28.8306 207.093 29.3576C207.381 29.8796 207.525 30.5582 207.525 31.3935V39H205.348V37.4339H205.258C205.114 37.7223 204.898 38.0057 204.609 38.2841C204.321 38.5625 203.951 38.7937 203.498 38.9776C203.046 39.1616 202.504 39.2536 201.872 39.2536ZM202.357 37.4638C202.974 37.4638 203.501 37.342 203.938 37.0984C204.381 36.8548 204.716 36.5366 204.945 36.1438C205.179 35.7461 205.295 35.321 205.295 34.8686V33.392C205.216 33.4716 205.062 33.5462 204.833 33.6158C204.609 33.6804 204.353 33.7376 204.065 33.7873C203.777 33.832 203.496 33.8743 203.222 33.9141C202.949 33.9489 202.72 33.9787 202.536 34.0036C202.104 34.0582 201.708 34.1502 201.35 34.2795C200.997 34.4087 200.714 34.5952 200.5 34.8388C200.291 35.0774 200.187 35.3956 200.187 35.7933C200.187 36.3452 200.391 36.7628 200.799 37.0462C201.206 37.3246 201.726 37.4638 202.357 37.4638ZM212.725 23.7273V39H210.495V23.7273H212.725ZM90.968 64H88.522L94.0181 48.7273H96.6804L102.176 64H99.7305L95.4126 51.5014H95.2933L90.968 64ZM91.3782 58.0192H99.3129V59.9581H91.3782V58.0192ZM105.251 64L101.88 52.5455H104.184L106.429 60.9574H106.541L108.793 52.5455H111.097L113.335 60.9201H113.446L115.676 52.5455H117.981L114.617 64H112.343L110.016 55.7298H109.845L107.518 64H105.251ZM123.43 64.2536C122.704 64.2536 122.048 64.1193 121.461 63.8509C120.875 63.5774 120.41 63.1822 120.067 62.6651C119.729 62.1481 119.56 61.5142 119.56 60.7635C119.56 60.1172 119.684 59.5852 119.933 59.1676C120.181 58.75 120.517 58.4194 120.939 58.1758C121.362 57.9322 121.834 57.7482 122.356 57.6239C122.878 57.4996 123.41 57.4052 123.952 57.3406C124.638 57.261 125.195 57.1964 125.623 57.1467C126.05 57.092 126.361 57.005 126.555 56.8857C126.749 56.7663 126.846 56.5724 126.846 56.304V56.2518C126.846 55.6005 126.662 55.0959 126.294 54.7379C125.931 54.38 125.389 54.201 124.668 54.201C123.917 54.201 123.326 54.3675 122.893 54.7006C122.466 55.0288 122.17 55.3942 122.006 55.7969L119.91 55.3196C120.159 54.6236 120.522 54.0618 120.999 53.6342C121.481 53.2017 122.036 52.8885 122.662 52.6946C123.288 52.4957 123.947 52.3963 124.638 52.3963C125.096 52.3963 125.58 52.451 126.092 52.5604C126.609 52.6648 127.092 52.8587 127.539 53.142C127.991 53.4254 128.362 53.8306 128.65 54.3576C128.939 54.8796 129.083 55.5582 129.083 56.3935V64H126.905V62.4339H126.816C126.672 62.7223 126.455 63.0057 126.167 63.2841C125.879 63.5625 125.508 63.7937 125.056 63.9776C124.603 64.1616 124.061 64.2536 123.43 64.2536ZM123.915 62.4638C124.531 62.4638 125.058 62.342 125.496 62.0984C125.938 61.8548 126.274 61.5366 126.502 61.1438C126.736 60.7461 126.853 60.321 126.853 59.8686V58.392C126.773 58.4716 126.619 58.5462 126.391 58.6158C126.167 58.6804 125.911 58.7376 125.623 58.7873C125.334 58.832 125.053 58.8743 124.78 58.9141C124.506 58.9489 124.278 58.9787 124.094 59.0036C123.661 59.0582 123.266 59.1502 122.908 59.2795C122.555 59.4087 122.272 59.5952 122.058 59.8388C121.849 60.0774 121.745 60.3956 121.745 60.7933C121.745 61.3452 121.949 61.7628 122.356 62.0462C122.764 62.3246 123.283 62.4638 123.915 62.4638ZM132.053 64V52.5455H134.208V54.3651H134.327C134.536 53.7486 134.904 53.2638 135.431 52.9109C135.963 52.5529 136.564 52.3739 137.236 52.3739C137.375 52.3739 137.539 52.3789 137.728 52.3888C137.922 52.3988 138.073 52.4112 138.183 52.4261V54.5589C138.093 54.5341 137.934 54.5067 137.705 54.4769C137.477 54.4421 137.248 54.4247 137.019 54.4247C136.492 54.4247 136.022 54.5366 135.61 54.7603C135.202 54.979 134.879 55.2848 134.64 55.6776C134.402 56.0653 134.282 56.5078 134.282 57.005V64H132.053ZM143.99 64.2237C143.065 64.2237 142.24 63.9876 141.514 63.5153C140.793 63.038 140.227 62.3594 139.814 61.4794C139.406 60.5945 139.202 59.533 139.202 58.2951C139.202 57.0572 139.409 55.9982 139.821 55.1183C140.239 54.2383 140.811 53.5646 141.537 53.0973C142.262 52.63 143.085 52.3963 144.005 52.3963C144.716 52.3963 145.288 52.5156 145.72 52.7543C146.158 52.9879 146.496 53.2614 146.734 53.5746C146.978 53.8878 147.167 54.1637 147.301 54.4023H147.435V48.7273H149.665V64H147.488V62.2177H147.301C147.167 62.4613 146.973 62.7397 146.719 63.0529C146.471 63.3661 146.128 63.6396 145.69 63.8732C145.253 64.1069 144.686 64.2237 143.99 64.2237ZM144.482 62.3221C145.124 62.3221 145.665 62.1531 146.108 61.815C146.555 61.4719 146.893 60.9972 147.122 60.3906C147.356 59.7841 147.473 59.0781 147.473 58.2727C147.473 57.4773 147.358 56.7812 147.13 56.1847C146.901 55.5881 146.565 55.1232 146.123 54.7901C145.68 54.457 145.134 54.2905 144.482 54.2905C143.811 54.2905 143.252 54.4645 142.804 54.8125C142.357 55.1605 142.019 55.6353 141.79 56.2369C141.566 56.8384 141.455 57.517 141.455 58.2727C141.455 59.0384 141.569 59.7269 141.798 60.3384C142.026 60.9499 142.364 61.4347 142.812 61.7926C143.264 62.1456 143.821 62.3221 144.482 62.3221ZM161.431 55.342L159.41 55.6999C159.326 55.4414 159.191 55.1953 159.007 54.9616C158.828 54.728 158.585 54.5366 158.277 54.3874C157.968 54.2383 157.583 54.1637 157.121 54.1637C156.489 54.1637 155.962 54.3054 155.54 54.5888C155.117 54.8672 154.906 55.2276 154.906 55.6701C154.906 56.0529 155.047 56.3612 155.331 56.5948C155.614 56.8285 156.072 57.0199 156.703 57.169L158.523 57.5866C159.577 57.8303 160.362 58.2056 160.879 58.7127C161.396 59.2198 161.655 59.8786 161.655 60.6889C161.655 61.375 161.456 61.9865 161.058 62.5234C160.665 63.0554 160.116 63.473 159.41 63.7763C158.709 64.0795 157.896 64.2312 156.972 64.2312C155.689 64.2312 154.642 63.9577 153.832 63.4109C153.022 62.859 152.524 62.076 152.34 61.0618L154.496 60.7337C154.63 61.2955 154.906 61.7205 155.323 62.0089C155.741 62.2923 156.285 62.4339 156.957 62.4339C157.687 62.4339 158.272 62.2823 158.709 61.979C159.147 61.6708 159.365 61.2955 159.365 60.853C159.365 60.495 159.231 60.1942 158.963 59.9506C158.699 59.707 158.294 59.5231 157.747 59.3988L155.808 58.9737C154.739 58.7301 153.949 58.3423 153.437 57.8104C152.93 57.2784 152.676 56.6048 152.676 55.7894C152.676 55.1133 152.865 54.5217 153.243 54.0146C153.621 53.5075 154.143 53.1122 154.809 52.8288C155.475 52.5405 156.238 52.3963 157.098 52.3963C158.336 52.3963 159.311 52.6648 160.022 53.2017C160.733 53.7337 161.202 54.4471 161.431 55.342Z" fill="white"/>
</svg>
