<svg width="762" height="470" viewBox="0 0 762 470" fill="none" xmlns="http://www.w3.org/2000/svg">
<path d="M761.31 53.54C761.31 56.9797 758.826 60.4579 753.788 63.918C748.771 67.3646 741.338 70.7089 731.719 73.9057C712.487 80.297 684.63 86.0605 650.176 90.9034C581.275 100.588 486.073 106.58 380.905 106.58C275.737 106.58 180.535 100.588 111.634 90.9034C77.1799 86.0605 49.3235 80.297 30.0911 73.9057C20.4715 70.7089 13.0392 67.3646 8.02173 63.918C2.98437 60.4579 0.5 56.9797 0.5 53.54C0.5 50.1003 2.98437 46.6221 8.02173 43.162C13.0392 39.7154 20.4715 36.3711 30.0911 33.1743C49.3235 26.783 77.1799 21.0195 111.634 16.1766C180.535 6.49194 275.737 0.5 380.905 0.5C486.073 0.5 581.275 6.49194 650.176 16.1766C684.63 21.0195 712.487 26.783 731.719 33.1743C741.338 36.3711 748.771 39.7154 753.788 43.162C758.826 46.6221 761.31 50.1003 761.31 53.54Z" stroke="white"/>
<path d="M761.31 141.54C761.31 144.98 758.826 148.458 753.788 151.918C748.771 155.365 741.338 158.709 731.719 161.906C712.487 168.297 684.63 174.06 650.176 178.903C581.275 188.588 486.073 194.58 380.905 194.58C275.737 194.58 180.535 188.588 111.634 178.903C77.1799 174.06 49.3235 168.297 30.0911 161.906C20.4715 158.709 13.0392 155.365 8.02173 151.918C2.98437 148.458 0.5 144.98 0.5 141.54C0.5 138.1 2.98437 134.622 8.02173 131.162C13.0392 127.715 20.4715 124.371 30.0911 121.174C49.3235 114.783 77.1799 109.02 111.634 104.177C180.535 94.4919 275.737 88.5 380.905 88.5C486.073 88.5 581.275 94.4919 650.176 104.177C684.63 109.02 712.487 114.783 731.719 121.174C741.338 124.371 748.771 127.715 753.788 131.162C758.826 134.622 761.31 138.1 761.31 141.54Z" stroke="white"/>
<path d="M761.31 224.54C761.31 227.98 758.826 231.458 753.788 234.918C748.771 238.365 741.338 241.709 731.719 244.906C712.487 251.297 684.63 257.06 650.176 261.903C581.275 271.588 486.073 277.58 380.905 277.58C275.737 277.58 180.535 271.588 111.634 261.903C77.1799 257.06 49.3235 251.297 30.0911 244.906C20.4715 241.709 13.0392 238.365 8.02173 234.918C2.98437 231.458 0.5 227.98 0.5 224.54C0.5 221.1 2.98437 217.622 8.02173 214.162C13.0392 210.715 20.4715 207.371 30.0911 204.174C49.3235 197.783 77.1799 192.02 111.634 187.177C180.535 177.492 275.737 171.5 380.905 171.5C486.073 171.5 581.275 177.492 650.176 187.177C684.63 192.02 712.487 197.783 731.719 204.174C741.338 207.371 748.771 210.715 753.788 214.162C758.826 217.622 761.31 221.1 761.31 224.54Z" stroke="white"/>
<path d="M761.31 308.54C761.31 311.98 758.826 315.458 753.788 318.918C748.771 322.365 741.338 325.709 731.719 328.906C712.487 335.297 684.63 341.06 650.176 345.903C581.275 355.588 486.073 361.58 380.905 361.58C275.737 361.58 180.535 355.588 111.634 345.903C77.1799 341.06 49.3235 335.297 30.0911 328.906C20.4715 325.709 13.0392 322.365 8.02173 318.918C2.98437 315.458 0.5 311.98 0.5 308.54C0.5 305.1 2.98437 301.622 8.02173 298.162C13.0392 294.715 20.4715 291.371 30.0911 288.174C49.3235 281.783 77.1799 276.02 111.634 271.177C180.535 261.492 275.737 255.5 380.905 255.5C486.073 255.5 581.275 261.492 650.176 271.177C684.63 276.02 712.487 281.783 731.719 288.174C741.338 291.371 748.771 294.715 753.788 298.162C758.826 301.622 761.31 305.1 761.31 308.54Z" stroke="white"/>
<path d="M761.31 395.54C761.31 398.98 758.826 402.458 753.788 405.918C748.771 409.365 741.338 412.709 731.719 415.906C712.487 422.297 684.63 428.06 650.176 432.903C581.275 442.588 486.073 448.58 380.905 448.58C275.737 448.58 180.535 442.588 111.634 432.903C77.1799 428.06 49.3235 422.297 30.0911 415.906C20.4715 412.709 13.0392 409.365 8.02173 405.918C2.98437 402.458 0.5 398.98 0.5 395.54C0.5 392.1 2.98437 388.622 8.02173 385.162C13.0392 381.715 20.4715 378.371 30.0911 375.174C49.3235 368.783 77.1799 363.02 111.634 358.177C180.535 348.492 275.737 342.5 380.905 342.5C486.073 342.5 581.275 348.492 650.176 358.177C684.63 363.02 712.487 368.783 731.719 375.174C741.338 378.371 748.771 381.715 753.788 385.162C758.826 388.622 761.31 392.1 761.31 395.54Z" stroke="white"/>
</svg>
