<svg width="270" height="100" viewBox="0 0 270 100" fill="none" xmlns="http://www.w3.org/2000/svg">
<path d="M40.7263 64.9644H31.0339L41.954 31.881H54.231L65.1511 64.9644H55.4587L48.2217 40.9918H47.9633L40.7263 64.9644ZM38.917 51.9119H57.1387V58.632H38.917V51.9119ZM81.0668 64.9644H68.3375V31.881H80.9376C84.3407 31.881 87.2807 32.5433 89.7577 33.8679C92.2454 35.1818 94.1624 37.0772 95.5085 39.5541C96.8655 42.0203 97.5439 44.9765 97.5439 48.4227C97.5439 51.8688 96.8708 54.8304 95.5247 57.3074C94.1785 59.7735 92.2723 61.6689 89.8062 62.9936C87.34 64.3074 84.4269 64.9644 81.0668 64.9644ZM77.3191 57.3397H80.7438C82.3807 57.3397 83.7753 57.0758 84.9276 56.5481C86.0907 56.0204 86.9738 55.1104 87.5769 53.8181C88.1908 52.5258 88.4977 50.7273 88.4977 48.4227C88.4977 46.118 88.1854 44.3195 87.5607 43.0272C86.9469 41.7349 86.0423 40.8249 84.8469 40.2972C83.6623 39.7695 82.2084 39.5056 80.4853 39.5056H77.3191V57.3397Z" fill="white"/>
<path d="M76.9415 99.3264L56.092 31.0919H67.4645V63.3138L76.9415 99.3264Z" fill="white"/>
<path d="M126.402 39.3651C126.477 37.4267 125.901 35.9082 124.673 34.8097C123.456 33.7112 121.749 33.162 119.552 33.162C118.023 33.162 116.623 33.4312 115.352 33.9697C114.092 34.4974 113.053 35.2243 112.235 36.1505C111.427 37.0767 110.926 38.1321 110.732 39.3167C110.592 40.189 110.657 40.9536 110.926 41.6106C111.195 42.2567 111.61 42.8167 112.17 43.2906C112.73 43.7644 113.371 44.1683 114.092 44.5021C114.825 44.836 115.568 45.116 116.322 45.3421L119.666 46.3437C120.656 46.6344 121.642 47.006 122.622 47.4583C123.602 47.9106 124.474 48.476 125.239 49.1545C126.003 49.8329 126.569 50.6676 126.935 51.6583C127.312 52.6491 127.387 53.8337 127.161 55.2122C126.859 56.9999 126.138 58.5992 124.996 60.01C123.866 61.41 122.379 62.5192 120.538 63.3377C118.696 64.1562 116.569 64.5654 114.157 64.5654C111.906 64.5654 110.011 64.1938 108.471 63.4508C106.931 62.6969 105.795 61.6577 105.062 60.333C104.33 59.0084 104.05 57.4738 104.222 55.7292H107.324C107.205 57.0322 107.448 58.1361 108.051 59.0407C108.665 59.9453 109.537 60.6346 110.668 61.1084C111.809 61.5715 113.123 61.8031 114.609 61.8031C116.257 61.8031 117.77 61.5284 119.149 60.9792C120.527 60.4192 121.663 59.6438 122.557 58.653C123.462 57.6515 124.022 56.4884 124.237 55.1638C124.431 54.0437 124.296 53.1014 123.833 52.3368C123.381 51.5722 122.676 50.9314 121.717 50.4145C120.769 49.8868 119.639 49.4237 118.325 49.0252L114.545 47.8622C112.079 47.1083 110.242 46.0475 109.036 44.6798C107.841 43.3121 107.415 41.5675 107.76 39.4459C108.062 37.6582 108.799 36.0913 109.973 34.7451C111.158 33.3882 112.628 32.3328 114.383 31.5789C116.139 30.8251 118.034 30.4481 120.069 30.4481C122.126 30.4481 123.876 30.8304 125.319 31.5951C126.773 32.3597 127.85 33.4151 128.55 34.7613C129.261 36.0967 129.525 37.6313 129.342 39.3651H126.402ZM146.271 39.1875L145.867 41.6913H134.01L134.43 39.1875H146.271ZM139.099 33.2428H141.99L137.952 57.5222C137.78 58.5561 137.823 59.3692 138.081 59.9615C138.34 60.543 138.738 60.9577 139.277 61.2054C139.815 61.4423 140.407 61.5607 141.053 61.5607C141.43 61.5607 141.753 61.5392 142.023 61.4961C142.303 61.4423 142.55 61.3884 142.766 61.3346L142.976 63.9354C142.663 64.0431 142.292 64.14 141.861 64.2262C141.43 64.3231 140.913 64.3715 140.31 64.3715C139.255 64.3715 138.28 64.14 137.387 63.6769C136.493 63.2138 135.814 62.5246 135.351 61.6092C134.888 60.6938 134.764 59.5576 134.98 58.2007L139.099 33.2428ZM165.999 54.5176L168.568 39.1875H171.443L167.308 64H164.432L165.111 59.8807H164.901C164.125 61.1515 163.027 62.2123 161.605 63.0631C160.195 63.9031 158.579 64.3231 156.759 64.3231C155.176 64.3231 153.825 63.9785 152.705 63.2892C151.595 62.5892 150.804 61.5661 150.33 60.22C149.856 58.8738 149.781 57.2207 150.104 55.2607L152.801 39.1875H155.677L153.028 55.083C152.715 57.0215 153.028 58.583 153.965 59.7677C154.912 60.9415 156.28 61.5284 158.068 61.5284C159.188 61.5284 160.308 61.2592 161.428 60.7207C162.558 60.1823 163.538 59.3961 164.368 58.3623C165.208 57.3176 165.752 56.0361 165.999 54.5176ZM183.805 64.5169C181.77 64.5169 180.073 63.9785 178.717 62.9015C177.36 61.8246 176.412 60.3223 175.873 58.3946C175.335 56.4669 175.276 54.2214 175.696 51.6583C176.126 49.106 176.929 46.8714 178.103 44.9544C179.287 43.0267 180.736 41.5298 182.448 40.4636C184.171 39.3867 186.05 38.8482 188.086 38.8482C189.604 38.8482 190.816 39.1175 191.72 39.6559C192.636 40.1836 193.331 40.8405 193.804 41.6267C194.278 42.4129 194.617 43.1775 194.822 43.9206H195.081L197.245 30.9166H200.137L194.644 64H191.85L192.625 59.3961H192.27C191.807 60.15 191.198 60.9254 190.444 61.7223C189.701 62.5084 188.786 63.1708 187.698 63.7092C186.61 64.2477 185.313 64.5169 183.805 64.5169ZM184.435 61.8838C186.04 61.8838 187.488 61.4477 188.78 60.5754C190.084 59.6923 191.171 58.4807 192.044 56.9407C192.927 55.3899 193.53 53.613 193.853 51.6099C194.187 49.6283 194.181 47.8783 193.837 46.3598C193.492 44.8306 192.824 43.6352 191.834 42.7736C190.843 41.9013 189.534 41.4652 187.908 41.4652C186.26 41.4652 184.796 41.9175 183.514 42.8221C182.233 43.716 181.172 44.9275 180.332 46.4568C179.503 47.986 178.927 49.7037 178.603 51.6099C178.291 53.5376 178.291 55.2768 178.603 56.8276C178.916 58.3784 179.551 59.6115 180.51 60.5269C181.479 61.4315 182.787 61.8838 184.435 61.8838ZM202.851 64L206.986 39.1875H209.878L205.742 64H202.851ZM209.474 34.8743C208.871 34.8743 208.359 34.6697 207.939 34.2605C207.53 33.8512 207.331 33.3559 207.341 32.7743C207.363 32.2251 207.584 31.7512 208.004 31.3528C208.434 30.9435 208.941 30.7389 209.522 30.7389C210.125 30.7389 210.637 30.9489 211.057 31.3689C211.477 31.7781 211.676 32.2735 211.655 32.8551C211.644 33.4043 211.423 33.8782 210.992 34.2766C210.561 34.6751 210.055 34.8743 209.474 34.8743ZM223.104 64.5169C220.928 64.5169 219.097 63.9677 217.611 62.8692C216.125 61.76 215.075 60.2253 214.461 58.2653C213.847 56.3053 213.745 54.0437 214.154 51.4806C214.564 48.9822 215.377 46.7852 216.594 44.8898C217.821 42.9836 219.329 41.5029 221.117 40.4475C222.904 39.3813 224.848 38.8482 226.948 38.8482C229.135 38.8482 230.965 39.4028 232.441 40.5121C233.927 41.6213 234.977 43.156 235.591 45.116C236.215 47.076 236.323 49.3429 235.914 51.9168C235.505 54.4045 234.686 56.5961 233.458 58.4915C232.231 60.3761 230.723 61.8515 228.935 62.9177C227.158 63.9838 225.214 64.5169 223.104 64.5169ZM223.136 61.8838C224.902 61.8838 226.474 61.4154 227.853 60.4784C229.242 59.5307 230.389 58.2707 231.294 56.6984C232.198 55.1153 232.807 53.3761 233.119 51.4806C233.41 49.6714 233.378 48.0075 233.022 46.4891C232.667 44.9706 231.983 43.7537 230.971 42.8383C229.958 41.9229 228.612 41.4652 226.932 41.4652C225.177 41.4652 223.604 41.9444 222.215 42.9029C220.826 43.8506 219.679 45.1214 218.774 46.7152C217.87 48.2983 217.267 50.0322 216.965 51.9168C216.664 53.7368 216.685 55.4007 217.03 56.9084C217.385 58.4161 218.069 59.6223 219.081 60.5269C220.104 61.4315 221.456 61.8838 223.136 61.8838Z" fill="white"/>
</svg>
